<svg width="1800" height="30" viewBox="0 0 1800 30" xmlns="http://www.w3.org/2000/svg">
  <!-- Фон -->
  <rect width="1800" height="30" fill="#0f0a08"/>
  
  <!-- Левый валькнут -->
  <g transform="translate(15, 15)">
    <!-- Валькнут состоит из трех переплетенных треугольников -->
    <g stroke="#f4d774" stroke-width="1.5" fill="none">
      <!-- Первый треугольник -->
      <path d="M -8,-6 L 8,-6 L 0,8 Z"/>
      <!-- Второй треугольник -->
      <path d="M -4,-8 L 4,6 L -8,2 Z"/>
      <!-- Третий треугольник -->
      <path d="M 4,-8 L 8,2 L -4,6 Z"/>
    </g>
  </g>
  
  <!-- Правый валькнут -->
  <g transform="translate(1785, 15)">
    <g stroke="#f4d774" stroke-width="1.5" fill="none">
      <!-- Первый треугольник -->
      <path d="M -8,-6 L 8,-6 L 0,8 Z"/>
      <!-- Второй треугольник -->
      <path d="M -4,-8 L 4,6 L -8,2 Z"/>
      <!-- Третий треугольник -->
      <path d="M 4,-8 L 8,2 L -4,6 Z"/>
    </g>
  </g>
  
  <!-- Дополнительные малые валькнуты слева -->
  <g transform="translate(60, 15) scale(0.6)">
    <g stroke="#8b7355" stroke-width="1.2" fill="none" opacity="0.7">
      <path d="M -8,-6 L 8,-6 L 0,8 Z"/>
      <path d="M -4,-8 L 4,6 L -8,2 Z"/>
      <path d="M 4,-8 L 8,2 L -4,6 Z"/>
    </g>
  </g>
  
  <!-- Дополнительные малые валькнуты справа -->
  <g transform="translate(1740, 15) scale(0.6)">
    <g stroke="#8b7355" stroke-width="1.2" fill="none" opacity="0.7">
      <path d="M -8,-6 L 8,-6 L 0,8 Z"/>
      <path d="M -4,-8 L 4,6 L -8,2 Z"/>
      <path d="M 4,-8 L 8,2 L -4,6 Z"/>
    </g>
  </g>
  
  <!-- Скандинавский орнамент слева -->
  <g stroke="#f4d774" stroke-width="0.8" fill="none" opacity="0.4">
    <!-- Плетёный узор -->
    <path d="M 130,8 Q 140,10 145,15 Q 150,20 140,22 Q 130,20 135,15 Q 140,10 130,8"/>
    <path d="M 140,8 Q 150,10 155,15 Q 160,20 150,22 Q 140,20 145,15 Q 150,10 140,8"/>
    <path d="M 170,10 L 185,10 M 170,15 L 185,15 M 170,20 L 185,20"/>
    <path d="M 175,8 L 175,22 M 180,8 L 180,22"/>
    
    <!-- Треугольные мотивы -->
    <path d="M 200,12 L 208,8 L 216,12 L 208,16 Z"/>
    <path d="M 204,18 L 212,14 L 220,18 L 212,22 Z"/>
    
    <!-- Вертикальные линии с узлами -->
    <line x1="235" y1="8" x2="235" y2="22"/>
    <circle cx="235" cy="12" r="1.5" fill="none" stroke="#5c4a35" stroke-width="0.8"/>
    <circle cx="235" cy="18" r="1.5" fill="none" stroke="#5c4a35" stroke-width="0.8"/>
    
    <line x1="245" y1="8" x2="245" y2="22"/>
    <circle cx="245" cy="10" r="1" fill="none" stroke="#5c4a35" stroke-width="0.8"/>
    <circle cx="245" cy="15" r="1" fill="none" stroke="#5c4a35" stroke-width="0.8"/>
    <circle cx="245" cy="20" r="1" fill="none" stroke="#5c4a35" stroke-width="0.8"/>
  </g>
  
  <!-- Скандинавский орнамент справа -->
  <g stroke="#f4d774" stroke-width="0.8" fill="none" opacity="0.4">
    <!-- Зеркальный плетёный узор -->
    <path d="M 1670,8 Q 1660,10 1655,15 Q 1650,20 1660,22 Q 1670,20 1665,15 Q 1660,10 1670,8"/>
    <path d="M 1660,8 Q 1650,10 1645,15 Q 1640,20 1650,22 Q 1660,20 1655,15 Q 1650,10 1660,8"/>
    <path d="M 1630,10 L 1615,10 M 1630,15 L 1615,15 M 1630,20 L 1615,20"/>
    <path d="M 1625,8 L 1625,22 M 1620,8 L 1620,22"/>
    
    <!-- Треугольные мотивы -->
    <path d="M 1600,12 L 1592,8 L 1584,12 L 1592,16 Z"/>
    <path d="M 1596,18 L 1588,14 L 1580,18 L 1588,22 Z"/>
    
    <!-- Вертикальные линии с узлами -->
    <line x1="1565" y1="8" x2="1565" y2="22"/>
    <circle cx="1565" cy="12" r="1.5" fill="none" stroke="#5c4a35" stroke-width="0.8"/>
    <circle cx="1565" cy="18" r="1.5" fill="none" stroke="#5c4a35" stroke-width="0.8"/>
    
    <line x1="1555" y1="8" x2="1555" y2="22"/>
    <circle cx="1555" cy="10" r="1" fill="none" stroke="#5c4a35" stroke-width="0.8"/>
    <circle cx="1555" cy="15" r="1" fill="none" stroke="#5c4a35" stroke-width="0.8"/>
    <circle cx="1555" cy="20" r="1" fill="none" stroke="#5c4a35" stroke-width="0.8"/>
  </g>
  
  <!-- Дополнительный скандинавский орнамент в центральных областях -->
  <g stroke="#f4d774" stroke-width="0.6" fill="none" opacity="0.3">
    <!-- Левая центральная область -->
    <g transform="translate(350, 15)">
      <!-- Узел Йормунганда (мирового змея) -->
      <path d="M -30,-8 Q -20,-12 -10,-8 Q 0,-4 10,-8 Q 20,-12 30,-8"/>
      <path d="M -30,8 Q -20,12 -10,8 Q 0,4 10,8 Q 20,12 30,8"/>
      <path d="M -25,0 Q -15,4 -5,0 Q 5,-4 15,0 Q 25,4 35,0"/>
      
      <!-- Переплетения -->
      <circle cx="-15" cy="-4" r="2" fill="none"/>
      <circle cx="5" cy="2" r="2" fill="none"/>
      <circle cx="25" cy="-4" r="2" fill="none"/>
    </g>
    
    <!-- Правая центральная область -->
    <g transform="translate(1450, 15)">
      <!-- Зеркальный узор -->
      <path d="M 30,-8 Q 20,-12 10,-8 Q 0,-4 -10,-8 Q -20,-12 -30,-8"/>
      <path d="M 30,8 Q 20,12 10,8 Q 0,4 -10,8 Q -20,12 -30,8"/>
      <path d="M 25,0 Q 15,4 5,0 Q -5,-4 -15,0 Q -25,4 -35,0"/>
      
      <!-- Переплетения -->
      <circle cx="15" cy="-4" r="2" fill="none"/>
      <circle cx="-5" cy="2" r="2" fill="none"/>
      <circle cx="-25" cy="-4" r="2" fill="none"/>
    </g>
    
    <!-- Дополнительные рунические элементы -->
    <g transform="translate(270, 15)">
      <line x1="-5" y1="-10" x2="-5" y2="10"/>
      <line x1="-5" y1="-6" x2="0" y2="-2"/>
      <line x1="-5" y1="2" x2="0" y2="6"/>
      
      <line x1="5" y1="-10" x2="5" y2="10"/>
      <line x1="1" y1="-6" x2="9" y2="-6"/>
      <line x1="1" y1="6" x2="9" y2="6"/>
    </g>
    
    <g transform="translate(1530, 15)">
      <line x1="5" y1="-10" x2="5" y2="10"/>
      <line x1="5" y1="-6" x2="0" y2="-2"/>
      <line x1="5" y1="2" x2="0" y2="6"/>
      
      <line x1="-5" y1="-10" x2="-5" y2="10"/>
      <line x1="-1" y1="-6" x2="-9" y2="-6"/>
      <line x1="-1" y1="6" x2="-9" y2="6"/>
    </g>
  </g>
  <text x="900" y="20" text-anchor="middle" font-family="serif" font-size="16" font-weight="bold" fill="#f4d774" letter-spacing="2px">ВАЛЬКНУТ</text>
  
  <!-- Декоративные линии по краям текста -->
  <line x1="750" y1="15" x2="820" y2="15" stroke="#6b5640" stroke-width="1" opacity="0.6"/>
  <line x1="980" y1="15" x2="1050" y2="15" stroke="#6b5640" stroke-width="1" opacity="0.6"/>
  
  <!-- Мелкие декоративные точки -->
  <circle cx="740" cy="15" r="1.5" fill="#6b5640" opacity="0.7"/>
  <circle cx="730" cy="15" r="1" fill="#6b5640" opacity="0.5"/>
  <circle cx="1060" cy="15" r="1.5" fill="#6b5640" opacity="0.7"/>
  <circle cx="1070" cy="15" r="1" fill="#6b5640" opacity="0.5"/>
</svg>